Coordinates
version=1
nRows=49
nColumns=12
inDegrees=yes

Units are S.I. units (second, meters, Newtons, ...)
Angles are in degrees

endheader
time	SC_y	SC_z	SC_x	AC_y	AC_z	AC_x	GH_y	GH_z	GH_yy	EL_x	PS_y
       0.0              -39.44         -1.314          80.58          69.21          5.439          19.75          123.4         -1.175          142.0          79.63          115.9
   0.02227              -39.45         -1.311          80.58           69.2          5.435          19.74          123.4         -1.167          142.0          79.63          115.9
   0.04453              -39.45         -1.307          80.57           69.2          5.432          19.74          123.4         -1.158          142.0          79.62          115.9
    0.0668              -39.45         -1.303          80.56           69.2          5.428          19.74          123.4         -1.148          141.9          79.62          115.9
   0.08907              -39.46         -1.298          80.55           69.2          5.425          19.74          123.4         -1.138          141.9          79.61          115.9
    0.1113              -39.46         -1.293          80.54           69.2          5.421          19.74          123.4         -1.127          141.8           79.6          115.9
    0.1336              -39.46         -1.288          80.53          69.19          5.416          19.73          123.3         -1.115          141.8          79.59          115.9
    0.1559              -39.47         -1.283          80.52          69.19          5.412          19.73          123.3         -1.102          141.8          79.59          115.9
    0.1781              -39.47         -1.277          80.51          69.19          5.407          19.73          123.3         -1.089          141.7          79.58          115.9
    0.2004              -39.47         -1.271           80.5          69.19          5.401          19.73          123.3         -1.075          141.6          79.57          115.9
    0.2227              -39.48         -1.264          80.49          69.18          5.396          19.72          123.3         -1.059          141.6          79.56          116.0
    0.2449              -39.48         -1.257          80.48          69.18           5.39          19.72          123.2         -1.042          141.5          79.55          116.0
    0.2672              -39.49          -1.25          80.46          69.18          5.383          19.72          123.2         -1.025          141.4          79.54          116.0
    0.2895              -39.49         -1.241          80.45          69.17          5.376          19.72          123.2         -1.005          141.4          79.52          116.0
    0.3117               -39.5         -1.232          80.43          69.17          5.368          19.71          123.1        -0.9842          141.3          79.51          116.0
     0.334              -39.51         -1.222          80.41          69.17           5.36          19.71          123.1        -0.9614          141.2          79.49          116.0
    0.3563              -39.51         -1.212          80.39          69.16          5.351           19.7          123.1        -0.9367          141.1          79.48          116.0
    0.3785              -39.52           -1.2          80.37          69.16          5.341           19.7          123.0        -0.9098          141.0          79.46          116.0
    0.4008              -39.53         -1.188          80.35          69.15           5.33          19.69          123.0        -0.8804          140.9          79.44          116.1
    0.4231              -39.54         -1.174          80.32          69.15          5.318          19.69          122.9        -0.8483          140.8          79.42          116.1
    0.4453              -39.55         -1.159          80.29          69.14          5.305          19.68          122.9        -0.8129          140.6           79.4          116.1
    0.4676              -39.56         -1.142          80.26          69.13          5.291          19.67          122.8         -0.774          140.5          79.37          116.1
    0.4899              -39.58         -1.123          80.23          69.12          5.275          19.67          122.7        -0.7311          140.3          79.34          116.2
    0.5121              -39.59         -1.103          80.19          69.12          5.257          19.66          122.7        -0.6835          140.1          79.31          116.2
    0.5344               -39.6          -1.08          80.14          69.11          5.238          19.65          122.6        -0.6306          139.9          79.28          116.2
    0.5567              -39.62         -1.055           80.1           69.1          5.216          19.64          122.5        -0.5716          139.7          79.24          116.3
    0.5789              -39.64         -1.026          80.04          69.08          5.192          19.63          122.4        -0.5054          139.4           79.2          116.3
    0.6012              -39.66        -0.9942          79.98          69.07          5.164          19.61          122.3         -0.431          139.1          79.15          116.3
    0.6235              -39.69        -0.9581          79.92          69.05          5.133           19.6          122.1         -0.347          138.8           79.1          116.4
    0.6457              -39.72         -0.917          79.84          69.04          5.098          19.58          122.0        -0.2515          138.4          79.03          116.5
     0.668              -39.75        -0.8701          79.75          69.02          5.058          19.56          121.8        -0.1426          138.0          78.96          116.5
    0.6903              -39.79        -0.8163          79.65          68.99          5.012          19.54          121.6        -0.0176          137.5          78.88          116.6
    0.7125              -39.83        -0.7543          79.53          68.97          4.959          19.51          121.4         0.1267          136.9          78.79          116.7
    0.7348              -39.88        -0.6821           79.4          68.94          4.897          19.48          121.1         0.2944          136.3          78.68          116.8
    0.7571              -39.93        -0.5977          79.24           68.9          4.825          19.45          120.8         0.4907          135.5          78.55          116.9
    0.7793               -40.0        -0.4982          79.06          68.86          4.739           19.4          120.5          0.722          134.6           78.4          117.0
    0.8016              -40.08        -0.3799          78.83          68.81          4.638          19.36          120.0         0.9969          133.5          78.22          117.2
    0.8239              -40.18        -0.2381          78.57          68.75          4.516           19.3          119.5          1.326          132.2          78.01          117.4
    0.8461               -40.3       -0.06664          78.25          68.68           4.37          19.22          118.9          1.725          130.6          77.75          117.7
    0.8684              -40.44         0.1429          77.86          68.59           4.19          19.14          118.1          2.212          128.7          77.43          118.0
    0.8907              -40.62         0.4015          77.37          68.48          3.968          19.03          117.2          2.813          126.4          77.04          118.3
    0.9129              -40.84         0.7239          76.77          68.34          3.692          18.89          116.0          3.563          123.4          76.55          118.8
    0.9352              -41.12           1.13          76.01          68.17          3.344          18.72          114.5          4.507          119.7          75.94          119.4
    0.9575              -41.47          1.646          75.04          67.95          2.902          18.51          112.6          5.707          115.0          75.16          120.1
    0.9797              -41.92          2.307          73.81          67.67          2.335          18.23          110.2          7.243          109.0          74.16          121.0
     1.002               -42.5          3.156          72.22          67.31          1.609          17.88          107.1          9.215          101.2          72.88          122.2
     1.024              -43.24          4.239          70.19          66.85         0.6806          17.43          103.2          11.73          91.33          71.24          123.8
     1.047              -44.17          5.601          67.64          66.28        -0.4866          16.86          98.23           14.9          78.89          69.19          125.7
     1.069              -45.31          7.261          64.53          65.57         -1.909          16.16          92.17          18.76          63.73          66.68          128.0
